<svg width="64" height="64" viewBox="0 0 64 64" fill="none" xmlns="http://www.w3.org/2000/svg">
  <rect width="64" height="64" rx="18" fill="#0F172A"></rect>
  <rect x="6" y="6" width="52" height="52" rx="14" fill="#111827" stroke="#2563EB" stroke-width="3"></rect>
  <path d="M18 23H27V28H23.5V39C23.5 43.4 20.8 46 16.4 46H14V41H16.1C17.8 41 18.8 40 18.8 38.2V28H18V23Z" fill="white"></path>
  <path d="M30 23H36V41H44V46H30V23Z" fill="white"></path>
  <path d="M48.5 23C53.2 23 56 25.6 56 29.4H50.5C50.5 28.1 49.7 27.3 48.3 27.3C47 27.3 46.2 28 46.2 29.1C46.2 30.4 47.3 30.9 49.7 31.6C53.4 32.7 56.4 34.2 56.4 38.8C56.4 43.4 53.2 46.3 48.3 46.3C43.1 46.3 40 43.4 40 39.1H45.5C45.5 40.8 46.5 41.7 48.3 41.7C49.8 41.7 50.8 41 50.8 39.7C50.8 38.3 49.8 37.7 47.1 36.9C43.7 35.9 40.8 34.4 40.8 29.8C40.8 25.7 43.8 23 48.5 23Z" fill="white"></path>
</svg>